<svg width="41" height="41" viewBox="0 0 41 41" fill="none" xmlns="http://www.w3.org/2000/svg">
<circle cx="20.7578" cy="20.7793" r="20" fill="white"/>
<path d="M22.2659 29.6542L22.2641 29.6542C22.0896 29.6548 21.9173 29.6184 21.7601 29.548C21.6029 29.4776 21.4651 29.3751 21.3563 29.2486C21.3563 29.2486 21.3563 29.2485 21.3563 29.2485L15.1455 21.9638L15.1446 21.9629C14.9748 21.7678 14.8828 21.5242 14.8828 21.2739C14.8828 21.0238 14.9747 20.7804 15.1444 20.5853C15.1444 20.5852 15.1445 20.5851 15.1446 20.585L21.5738 13.3006L21.5739 13.3005C21.7702 13.0776 22.0537 12.9359 22.3629 12.909C22.6721 12.882 22.979 12.9724 23.2161 13.1584C23.4529 13.3443 23.6001 13.6097 23.628 13.8955C23.6559 14.1812 23.5626 14.4668 23.3666 14.6894C23.3666 14.6894 23.3666 14.6895 23.3666 14.6895L17.6186 21.1973L17.5467 21.2786L17.6172 21.3612L23.1725 27.8691L23.1725 27.8691L23.1738 27.8707C23.3151 28.0308 23.4041 28.2249 23.4315 28.4299C23.4588 28.6348 23.4235 28.8431 23.3292 29.0304C23.2348 29.2177 23.085 29.3767 22.8965 29.4877C22.708 29.5987 22.4891 29.6567 22.2659 29.6542Z" fill="#333333" stroke="white" stroke-width="0.25"/>
</svg>
