<svg width="72" height="72" viewBox="0 0 72 72" fill="none" xmlns="http://www.w3.org/2000/svg">
<g filter="url(#filter0_d_4_53)">
<circle cx="36" cy="36" r="26" fill="#F88383"/>
<path d="M45.2859 34.8628H37.1287V26.7056C37.1287 26.4063 37.0098 26.1193 36.7982 25.9076C36.5865 25.696 36.2995 25.5771 36.0002 25.5771C35.7009 25.5771 35.4138 25.696 35.2022 25.9076C34.9905 26.1193 34.8716 26.4063 34.8716 26.7056V34.8628H26.7145C26.4151 34.8628 26.1281 34.9817 25.9164 35.1933C25.7048 35.405 25.5859 35.692 25.5859 35.9914C25.5859 36.2907 25.7048 36.5777 25.9164 36.7894C26.1281 37.001 26.4151 37.1199 26.7145 37.1199H34.8716V45.2771C34.8716 45.5764 34.9905 45.8634 35.2022 46.0751C35.4138 46.2867 35.7009 46.4056 36.0002 46.4056C36.2995 46.4056 36.5865 46.2867 36.7982 46.0751C37.0098 45.8634 37.1287 45.5764 37.1287 45.2771V37.1199H45.2859C45.5852 37.1199 45.8723 37.001 46.0839 36.7894C46.2956 36.5777 46.4145 36.2907 46.4145 35.9914C46.4145 35.692 46.2956 35.405 46.0839 35.1933C45.8723 34.9817 45.5852 34.8628 45.2859 34.8628Z" fill="white" stroke="white" stroke-width="0.4"/>
</g>
<defs>
<filter id="filter0_d_4_53" x="0" y="0" width="72" height="72" filterUnits="userSpaceOnUse" color-interpolation-filters="sRGB">
<feFlood flood-opacity="0" result="BackgroundImageFix"/>
<feColorMatrix in="SourceAlpha" type="matrix" values="0 0 0 0 0 0 0 0 0 0 0 0 0 0 0 0 0 0 127 0" result="hardAlpha"/>
<feOffset/>
<feGaussianBlur stdDeviation="5"/>
<feComposite in2="hardAlpha" operator="out"/>
<feColorMatrix type="matrix" values="0 0 0 0 0 0 0 0 0 0 0 0 0 0 0 0 0 0 0.03 0"/>
<feBlend mode="normal" in2="BackgroundImageFix" result="effect1_dropShadow_4_53"/>
<feBlend mode="normal" in="SourceGraphic" in2="effect1_dropShadow_4_53" result="shape"/>
</filter>
</defs>
</svg>
