<svg width="40" height="41" viewBox="0 0 40 41" fill="none" xmlns="http://www.w3.org/2000/svg">
<circle cx="20" cy="20.7793" r="20" fill="white" fill-opacity="0.3"/>
<path d="M16.7121 25.6417L16.802 25.7347L16.8918 25.6417L27.8953 14.2604C28.3538 13.7863 29.0888 13.7898 29.5181 14.2458L29.5181 14.2459L29.5203 14.2481C29.6313 14.3602 29.7199 14.4941 29.7809 14.6423C29.8419 14.7905 29.8739 14.9498 29.875 15.1111C29.8761 15.2724 29.8462 15.4322 29.7873 15.5813C29.7284 15.7303 29.6415 15.8656 29.532 15.9793L17.6204 28.2998C17.1635 28.7725 16.4275 28.7725 15.9705 28.2998L10.4688 22.6092C10.3601 22.4967 10.2736 22.363 10.2145 22.2155C10.1555 22.068 10.125 21.9098 10.125 21.7499C10.125 21.4268 10.2491 21.1178 10.4688 20.8906C10.6883 20.6635 10.9851 20.5368 11.2937 20.5368C11.6023 20.5368 11.8991 20.6635 12.1186 20.8906L16.7121 25.6417Z" fill="#D0D0D0" stroke="white" stroke-width="0.25"/>
</svg>
